<svg width="203" height="56" viewBox="0 0 203 56" fill="none" xmlns="http://www.w3.org/2000/svg">
<path d="M62.8958 18.8013L34.4411 11.0491C34.2016 10.9836 33.9486 10.9836 33.7092 11.0491L5.25516 18.8013C4.96612 18.8803 4.71134 19.0503 4.52981 19.2854C4.34828 19.5204 4.25 19.8075 4.25 20.1027C4.25 20.398 4.34828 20.6851 4.52981 20.9201C4.71134 21.1552 4.96612 21.3252 5.25516 21.4042L15.2392 24.1239C15.2225 24.2076 15.2137 24.2925 15.2131 24.3778V31.1174C15.2131 36.139 24.7019 38.7669 34.0755 38.7669C37.3994 38.7669 40.5758 38.4422 43.3846 37.83V43.6501C43.3846 43.9363 43.477 44.2151 43.6485 44.4462C43.82 44.6773 44.0617 44.8488 44.3387 44.9359C44.6157 45.023 44.9136 45.0213 45.1895 44.9309C45.4654 44.8406 45.705 44.6663 45.8737 44.4332L48.7099 40.5132L50.9158 42.6389C51.1087 42.8251 51.3532 42.951 51.6186 43.0009C51.884 43.0508 52.1585 43.0224 52.4076 42.9194C52.6567 42.8164 52.8693 42.6432 53.0188 42.4217C53.1683 42.2002 53.2479 41.9402 53.2479 41.6743V24.0321L62.8958 21.4035C63.1849 21.3247 63.4399 21.1548 63.6215 20.9198C63.8032 20.6848 63.9016 20.3977 63.9016 20.1024C63.9016 19.8071 63.8032 19.52 63.6215 19.285C63.4399 19.05 63.1849 18.88 62.8958 18.8013ZM34.0755 36.0667C24.2362 36.0667 17.9567 33.135 17.9567 31.1174V24.8638L33.7092 29.155C33.9487 29.2197 34.2015 29.2197 34.4411 29.155L43.3846 26.7188V35.0616C40.6341 35.7198 37.4426 36.0667 34.0755 36.0667ZM32.1289 20.0879C32.6179 19.9745 33.2682 19.8847 34.0755 19.8847C34.8965 19.8847 35.6901 19.9832 36.3101 20.1608L36.3204 20.1628L36.3307 20.1662L46.7709 22.9953L44.7433 23.5475L32.1289 20.0879ZM50.5036 38.4631L49.4829 37.4796C49.3415 37.3429 49.1716 37.238 48.9849 37.1722C48.7983 37.1064 48.5994 37.0813 48.4019 37.0986C48.2044 37.1158 48.0131 37.1751 47.8411 37.2722C47.6692 37.3694 47.5207 37.5021 47.406 37.6612L46.1289 39.4264V25.9715L50.5042 24.7794V38.4631H50.5036ZM51.9241 21.5912L37.0585 17.5632L37.0495 17.5619C33.9239 16.6776 28.4613 17.3087 28.4613 20.0825C28.4613 20.7508 28.8112 21.9598 31.1158 22.6071C31.1364 22.6139 31.1549 22.624 31.1761 22.6301L39.6148 24.9448L34.0755 26.4535L10.763 20.1027L34.0755 13.7513L57.3873 20.1027L51.9241 21.5912Z" fill="#2B4EFF"/>
<path d="M84.2616 31.0478L82.3136 25.3817C82.1693 25.0219 82.0154 24.6006 81.8519 24.1178C81.6884 23.6255 81.5248 23.0953 81.3613 22.5273C81.217 23.1048 81.0631 23.6397 80.8995 24.132C80.736 24.6243 80.5821 25.0503 80.4378 25.4101L78.5043 31.0478H84.2616ZM92.0102 38.9577H88.2297C87.8064 38.9577 87.465 38.8631 87.2052 38.6737C86.9455 38.4749 86.7483 38.224 86.6136 37.9211L85.3727 34.314H77.3788L76.1378 37.9211C76.032 38.1862 75.8396 38.4276 75.5606 38.6453C75.2913 38.8536 74.9546 38.9577 74.5506 38.9577H70.7412L78.8794 18.267H83.872L92.0102 38.9577Z" fill="#0E1133"/>
<path d="M103.975 27.7248C103.84 27.8858 103.71 28.0136 103.585 28.1082C103.46 28.2029 103.282 28.2502 103.051 28.2502C102.83 28.2502 102.628 28.1982 102.445 28.094C102.272 27.9899 102.075 27.8763 101.853 27.7532C101.632 27.6207 101.372 27.5023 101.074 27.3982C100.776 27.2941 100.406 27.242 99.9631 27.242C99.4148 27.242 98.9386 27.3414 98.5346 27.5402C98.1402 27.739 97.8131 28.023 97.5534 28.3923C97.2937 28.7615 97.1013 29.2159 96.9762 29.7555C96.8512 30.2857 96.7886 30.8869 96.7886 31.5591C96.7886 32.9697 97.0628 34.0537 97.6111 34.8111C98.1691 35.5684 98.9338 35.9471 99.9054 35.9471C100.425 35.9471 100.834 35.8856 101.132 35.7625C101.44 35.63 101.699 35.488 101.911 35.3365C102.123 35.1756 102.315 35.0288 102.488 34.8963C102.671 34.7637 102.897 34.6975 103.166 34.6975C103.522 34.6975 103.792 34.8253 103.975 35.0809L105.273 36.6572C104.811 37.1779 104.326 37.6039 103.816 37.9353C103.306 38.2572 102.782 38.5128 102.243 38.7021C101.714 38.882 101.18 39.0051 100.641 39.0713C100.103 39.1471 99.5783 39.1849 99.0685 39.1849C98.1546 39.1849 97.2792 39.0145 96.4423 38.6737C95.615 38.3329 94.8839 37.8406 94.2491 37.1968C93.6238 36.5436 93.1236 35.7436 92.7484 34.7969C92.3828 33.8501 92.2001 32.7709 92.2001 31.5591C92.2001 30.4987 92.3588 29.5094 92.6762 28.5911C93.0033 27.6633 93.4795 26.8633 94.1048 26.1911C94.7397 25.5095 95.5188 24.9746 96.4423 24.5864C97.3754 24.1983 98.4528 24.0042 99.6745 24.0042C100.848 24.0042 101.877 24.1888 102.762 24.558C103.647 24.9272 104.446 25.4669 105.158 26.1769L103.975 27.7248Z" fill="#0E1133"/>
<path d="M114.959 32.9649C114.065 33.0028 113.329 33.0786 112.752 33.1922C112.174 33.3058 111.718 33.4478 111.381 33.6182C111.044 33.7886 110.809 33.9827 110.674 34.2004C110.549 34.4182 110.486 34.6549 110.486 34.9105C110.486 35.4122 110.626 35.7673 110.905 35.9755C111.184 36.1744 111.593 36.2738 112.131 36.2738C112.708 36.2738 113.213 36.1744 113.646 35.9755C114.079 35.7767 114.517 35.4548 114.959 35.0099V32.9649ZM106.908 26.2763C107.812 25.4905 108.812 24.9083 109.909 24.5296C111.015 24.1415 112.199 23.9474 113.459 23.9474C114.363 23.9474 115.176 24.0941 115.897 24.3876C116.628 24.6716 117.244 25.074 117.744 25.5947C118.254 26.1059 118.644 26.7166 118.913 27.4266C119.182 28.1366 119.317 28.913 119.317 29.7555V38.9577H117.268C116.845 38.9577 116.523 38.9009 116.301 38.7873C116.09 38.6737 115.912 38.437 115.767 38.0773L115.45 37.2678C115.075 37.5802 114.714 37.8548 114.368 38.0915C114.021 38.3282 113.661 38.5317 113.286 38.7021C112.92 38.8631 112.526 38.9814 112.102 39.0571C111.689 39.1423 111.227 39.1849 110.717 39.1849C110.034 39.1849 109.414 39.0997 108.856 38.9293C108.298 38.7495 107.822 38.4891 107.427 38.1483C107.042 37.8075 106.744 37.3862 106.533 36.8844C106.321 36.3732 106.215 35.7862 106.215 35.1235C106.215 34.5933 106.35 34.0584 106.619 33.5188C106.889 32.9697 107.355 32.4727 108.019 32.0277C108.683 31.5733 109.577 31.1946 110.703 30.8916C111.828 30.5887 113.247 30.4183 114.959 30.3804V29.7555C114.959 28.894 114.777 28.2739 114.411 27.8952C114.055 27.5071 113.545 27.313 112.882 27.313C112.352 27.313 111.92 27.3698 111.583 27.4834C111.246 27.597 110.943 27.7248 110.674 27.8668C110.414 28.0088 110.159 28.1366 109.909 28.2502C109.659 28.3639 109.361 28.4207 109.014 28.4207C108.707 28.4207 108.447 28.3449 108.235 28.1934C108.024 28.042 107.85 27.8621 107.716 27.6538L106.908 26.2763Z" fill="#0E1133"/>
<path d="M131.478 28.1792C131.141 27.81 130.776 27.5544 130.381 27.4124C129.987 27.2609 129.573 27.1852 129.14 27.1852C128.727 27.1852 128.347 27.2657 128 27.4266C127.654 27.5875 127.351 27.8479 127.091 28.2076C126.841 28.5579 126.644 29.0171 126.5 29.5851C126.355 30.1532 126.283 30.8395 126.283 31.6443C126.283 32.4206 126.341 33.0738 126.456 33.604C126.572 34.1342 126.731 34.5649 126.933 34.8963C127.144 35.2182 127.394 35.4501 127.683 35.5921C127.972 35.7341 128.294 35.8051 128.65 35.8051C128.977 35.8051 129.27 35.7767 129.53 35.7199C129.799 35.6537 130.045 35.5637 130.266 35.4501C130.487 35.3365 130.694 35.1945 130.886 35.0241C131.088 34.8442 131.286 34.6407 131.478 34.4134V28.1792ZM135.951 17.699V38.9577H133.181C132.623 38.9577 132.257 38.7116 132.084 38.2193L131.738 37.0974C131.439 37.4098 131.127 37.6939 130.8 37.9495C130.473 38.2051 130.117 38.4276 129.732 38.6169C129.357 38.7968 128.948 38.9341 128.505 39.0287C128.073 39.1329 127.601 39.1849 127.091 39.1849C126.312 39.1849 125.591 39.0145 124.927 38.6737C124.263 38.3329 123.691 37.8406 123.21 37.1968C122.729 36.553 122.349 35.7673 122.07 34.8395C121.801 33.9022 121.666 32.8371 121.666 31.6443C121.666 30.5461 121.82 29.5283 122.128 28.5911C122.435 27.6443 122.868 26.8302 123.426 26.1485C123.994 25.4574 124.672 24.9178 125.461 24.5296C126.25 24.1415 127.12 23.9474 128.073 23.9474C128.852 23.9474 129.506 24.0562 130.035 24.274C130.564 24.4917 131.045 24.7852 131.478 25.1545V17.699H135.951Z" fill="#0E1133"/>
<path d="M148.506 29.8265C148.506 29.4763 148.458 29.1354 148.361 28.8041C148.275 28.4727 148.126 28.1792 147.914 27.9236C147.712 27.6585 147.443 27.4455 147.106 27.2846C146.769 27.1236 146.36 27.0432 145.879 27.0432C145.033 27.0432 144.369 27.2846 143.888 27.7674C143.407 28.2408 143.09 28.9272 142.936 29.8265H148.506ZM142.878 32.3827C143.022 33.6135 143.402 34.5081 144.018 35.0667C144.634 35.6158 145.427 35.8903 146.399 35.8903C146.918 35.8903 147.366 35.8288 147.741 35.7057C148.116 35.5827 148.448 35.4454 148.736 35.2939C149.035 35.1424 149.304 35.0051 149.545 34.8821C149.795 34.759 150.054 34.6975 150.324 34.6975C150.68 34.6975 150.949 34.8253 151.132 35.0809L152.43 36.6572C151.969 37.1779 151.468 37.6039 150.93 37.9353C150.401 38.2572 149.852 38.5128 149.285 38.7021C148.727 38.882 148.164 39.0051 147.597 39.0713C147.039 39.1471 146.505 39.1849 145.995 39.1849C144.946 39.1849 143.96 39.0193 143.037 38.6879C142.123 38.3471 141.32 37.8453 140.627 37.1826C139.944 36.5199 139.401 35.6963 138.997 34.7117C138.602 33.7271 138.405 32.5815 138.405 31.275C138.405 30.2904 138.573 29.3579 138.91 28.4775C139.256 27.597 139.747 26.8254 140.382 26.1627C141.026 25.5 141.801 24.9746 142.705 24.5864C143.619 24.1983 144.648 24.0042 145.793 24.0042C146.784 24.0042 147.688 24.1557 148.506 24.4586C149.333 24.7616 150.04 25.2018 150.627 25.7793C151.223 26.3568 151.685 27.0668 152.012 27.9094C152.349 28.7425 152.517 29.6893 152.517 30.7496C152.517 31.081 152.503 31.3508 152.474 31.5591C152.445 31.7673 152.392 31.933 152.315 32.0561C152.238 32.1792 152.132 32.2644 151.998 32.3117C151.872 32.359 151.709 32.3827 151.507 32.3827H142.878Z" fill="#0E1133"/>
<path d="M154.981 38.9577V24.2314H157.751C158.309 24.2314 158.675 24.4775 158.848 24.9698L159.093 25.7651C159.343 25.5095 159.603 25.2775 159.872 25.0692C160.142 24.8515 160.43 24.6669 160.738 24.5154C161.056 24.3545 161.392 24.2314 161.748 24.1462C162.114 24.0515 162.513 24.0042 162.946 24.0042C163.85 24.0042 164.596 24.2361 165.182 24.7C165.779 25.1545 166.231 25.7651 166.539 26.5319C166.789 26.0775 167.092 25.6894 167.448 25.3675C167.813 25.0456 168.203 24.7852 168.617 24.5864C169.04 24.3876 169.482 24.2409 169.944 24.1462C170.416 24.0515 170.882 24.0042 171.344 24.0042C172.2 24.0042 172.96 24.132 173.624 24.3876C174.287 24.6338 174.841 24.9982 175.283 25.4811C175.735 25.9544 176.077 26.5414 176.308 27.242C176.538 27.9331 176.654 28.7189 176.654 29.5993V38.9577H172.181V29.5993C172.181 28.0751 171.517 27.313 170.189 27.313C169.583 27.313 169.078 27.5118 168.674 27.9094C168.28 28.2976 168.083 28.8609 168.083 29.5993V38.9577H163.61V29.5993C163.61 28.7567 163.441 28.165 163.105 27.8242C162.768 27.4834 162.273 27.313 161.618 27.313C161.214 27.313 160.83 27.4029 160.464 27.5828C160.108 27.7627 159.771 28.0041 159.454 28.3071V38.9577H154.981Z" fill="#0E1133"/>
<path d="M184.327 24.2314V38.9577H179.854V24.2314H184.327ZM184.789 20.1983C184.789 20.5486 184.717 20.88 184.573 21.1924C184.428 21.4953 184.231 21.7652 183.981 22.0019C183.731 22.2291 183.438 22.4137 183.101 22.5557C182.774 22.6882 182.423 22.7545 182.048 22.7545C181.682 22.7545 181.341 22.6882 181.023 22.5557C180.706 22.4137 180.422 22.2291 180.172 22.0019C179.931 21.7652 179.739 21.4953 179.595 21.1924C179.46 20.88 179.393 20.5486 179.393 20.1983C179.393 19.8386 179.46 19.5025 179.595 19.1901C179.739 18.8776 179.931 18.6031 180.172 18.3664C180.422 18.1297 180.706 17.9451 181.023 17.8126C181.341 17.68 181.682 17.6138 182.048 17.6138C182.423 17.6138 182.774 17.68 183.101 17.8126C183.438 17.9451 183.731 18.1297 183.981 18.3664C184.231 18.6031 184.428 18.8776 184.573 19.1901C184.717 19.5025 184.789 19.8386 184.789 20.1983Z" fill="#0E1133"/>
<path d="M195.392 32.9649C194.498 33.0028 193.762 33.0786 193.185 33.1922C192.607 33.3058 192.151 33.4478 191.814 33.6182C191.477 33.7886 191.241 33.9827 191.107 34.2004C190.982 34.4182 190.919 34.6549 190.919 34.9105C190.919 35.4122 191.059 35.7673 191.338 35.9755C191.617 36.1744 192.025 36.2738 192.564 36.2738C193.141 36.2738 193.646 36.1744 194.079 35.9755C194.512 35.7767 194.95 35.4548 195.392 35.0099V32.9649ZM187.341 26.2763C188.245 25.4905 189.245 24.9083 190.342 24.5296C191.448 24.1415 192.631 23.9474 193.892 23.9474C194.796 23.9474 195.609 24.0941 196.33 24.3876C197.061 24.6716 197.677 25.074 198.177 25.5947C198.687 26.1059 199.077 26.7166 199.346 27.4266C199.615 28.1366 199.75 28.913 199.75 29.7555V38.9577H197.701C197.278 38.9577 196.956 38.9009 196.734 38.7873C196.523 38.6737 196.345 38.437 196.2 38.0773L195.883 37.2678C195.508 37.5802 195.147 37.8548 194.801 38.0915C194.454 38.3282 194.094 38.5317 193.719 38.7021C193.353 38.8631 192.959 38.9814 192.535 39.0571C192.122 39.1423 191.66 39.1849 191.15 39.1849C190.467 39.1849 189.847 39.0997 189.289 38.9293C188.731 38.7495 188.255 38.4891 187.86 38.1483C187.475 37.8075 187.177 37.3862 186.966 36.8844C186.754 36.3732 186.648 35.7862 186.648 35.1235C186.648 34.5933 186.783 34.0584 187.052 33.5188C187.321 32.9697 187.788 32.4727 188.452 32.0277C189.116 31.5733 190.01 31.1946 191.136 30.8916C192.261 30.5887 193.68 30.4183 195.392 30.3804V29.7555C195.392 28.894 195.21 28.2739 194.844 27.8952C194.488 27.5071 193.978 27.313 193.314 27.313C192.785 27.313 192.353 27.3698 192.016 27.4834C191.679 27.597 191.376 27.7248 191.107 27.8668C190.847 28.0088 190.592 28.1366 190.342 28.2502C190.092 28.3639 189.794 28.4207 189.447 28.4207C189.14 28.4207 188.88 28.3449 188.668 28.1934C188.457 28.042 188.283 27.8621 188.149 27.6538L187.341 26.2763Z" fill="#0E1133"/>
</svg>
