<svg width="56" height="56" viewBox="0 0 56 56" fill="none" xmlns="http://www.w3.org/2000/svg">
<path opacity="0.2" d="M8.75 10.5637H47.25C48.182 10.5637 48.9375 11.3192 48.9375 12.2512V43.7512C48.9375 44.6832 48.182 45.4387 47.25 45.4387H8.75C7.81802 45.4387 7.0625 44.6832 7.0625 43.7512V12.2512C7.0625 11.3192 7.81802 10.5637 8.75 10.5637Z" fill="#2B4EFF" stroke="#2B4EFF" stroke-width="0.125"/>
<path d="M47.25 10.5012H8.75C7.7835 10.5012 7 11.2847 7 12.2512V43.7512C7 44.7177 7.7835 45.5012 8.75 45.5012H47.25C48.2165 45.5012 49 44.7177 49 43.7512V12.2512C49 11.2847 48.2165 10.5012 47.25 10.5012Z" stroke="#2B4EFF" stroke-width="2" stroke-linecap="round" stroke-linejoin="round"/>
<path d="M17.4375 18.3762C17.4375 19.7915 16.2902 20.9387 14.875 20.9387C13.4598 20.9387 12.3125 19.7915 12.3125 18.3762C12.3125 16.961 13.4598 15.8137 14.875 15.8137C16.2902 15.8137 17.4375 16.961 17.4375 18.3762Z" fill="#2B4EFF" stroke="#2B4EFF" stroke-width="0.125"/>
<path d="M26.1875 18.3762C26.1875 19.7915 25.0402 20.9387 23.625 20.9387C22.2098 20.9387 21.0625 19.7915 21.0625 18.3762C21.0625 16.961 22.2098 15.8137 23.625 15.8137C25.0402 15.8137 26.1875 16.961 26.1875 18.3762Z" fill="#2B4EFF" stroke="#2B4EFF" stroke-width="0.125"/>
</svg>
