<svg width="56" height="56" viewBox="0 0 56 56" fill="none" xmlns="http://www.w3.org/2000/svg">
<path opacity="0.2" d="M20.9372 23.9226L7.39569 31.7407C6.51545 26.862 7.39203 21.828 9.87156 17.5329C12.3511 13.2377 16.2721 9.96125 20.9372 8.28376V23.9226Z" fill="#2B4EFF" stroke="#2B4EFF" stroke-width="0.125"/>
<path d="M28 28V7" stroke="#2B4EFF" stroke-width="2" stroke-linecap="round" stroke-linejoin="round"/>
<path d="M46.1865 17.5L9.81346 38.5" stroke="#2B4EFF" stroke-width="2" stroke-linecap="round" stroke-linejoin="round"/>
<path d="M7.35014 31.8392C6.44091 26.9187 7.31571 21.8352 9.81743 17.5016C12.3192 13.1681 16.2839 9.86835 20.9997 8.19507V23.9586L7.35014 31.8392Z" stroke="#2B4EFF" stroke-width="2" stroke-linecap="round" stroke-linejoin="round"/>
<path d="M28 7C31.6792 7.00068 35.2937 7.96798 38.4815 9.80504C41.6693 11.6421 44.3185 14.2844 46.1638 17.4675C48.0091 20.6505 48.9858 24.2624 48.996 27.9417C49.0063 31.6209 48.0497 35.2382 46.2221 38.4314C44.3945 41.6247 41.76 44.2817 38.5824 46.1364C35.4049 47.9912 31.7958 48.9785 28.1167 48.9997C24.4375 49.0208 20.8173 48.0749 17.6187 46.2568C14.4201 44.4386 11.7553 41.812 9.89114 38.64" stroke="#2B4EFF" stroke-width="2" stroke-linecap="round" stroke-linejoin="round"/>
</svg>
