<svg width="56" height="56" viewBox="0 0 56 56" fill="none" xmlns="http://www.w3.org/2000/svg">
<path opacity="0.2" d="M41.9999 34.9375H33.3124V17.5625H41.9999C44.304 17.5625 46.5137 18.4778 48.1429 20.107C49.7721 21.7362 50.6874 23.9459 50.6874 26.25C50.6874 28.5541 49.7721 30.7638 48.1429 32.393C46.5137 34.0222 44.304 34.9375 41.9999 34.9375Z" fill="#2B4EFF" stroke="#2B4EFF" stroke-width="0.125"/>
<path d="M33.2499 17.5V44.5634C33.2499 44.8515 33.321 45.1352 33.457 45.3892C33.5929 45.6432 33.7895 45.8597 34.0292 46.0195L36.4337 47.6225C36.667 47.7781 36.9343 47.8753 37.2131 47.906C37.4918 47.9366 37.7739 47.8998 38.0355 47.7987C38.297 47.6976 38.5305 47.5351 38.7161 47.3249C38.9017 47.1147 39.0341 46.8629 39.1022 46.5909L41.9999 35" stroke="#2B4EFF" stroke-width="2" stroke-linecap="round" stroke-linejoin="round"/>
<path d="M41.9999 35C44.3205 35 46.5461 34.0782 48.1871 32.4372C49.828 30.7963 50.7499 28.5707 50.7499 26.25C50.7499 23.9294 49.828 21.7038 48.1871 20.0629C46.5461 18.4219 44.3205 17.5 41.9999 17.5H33.2499C33.2499 17.5 21.3386 17.5 9.87622 7.8865C9.6213 7.67194 9.31041 7.53463 8.98011 7.49072C8.64981 7.44681 8.31385 7.49813 8.01172 7.63865C7.70959 7.77916 7.45387 8.00302 7.27463 8.2839C7.09538 8.56478 7.00007 8.89101 6.99989 9.22421V43.2759C7.00007 43.6091 7.09538 43.9353 7.27463 44.2162C7.45387 44.4971 7.70959 44.7209 8.01172 44.8614C8.31385 45.002 8.64981 45.0533 8.98011 45.0094C9.31041 44.9655 9.6213 44.8281 9.87622 44.6136C21.3386 35 33.2499 35 33.2499 35H41.9999Z" stroke="#2B4EFF" stroke-width="2" stroke-linecap="round" stroke-linejoin="round"/>
</svg>
