<svg width="56" height="56" viewBox="0 0 56 56" fill="none" xmlns="http://www.w3.org/2000/svg">
<path opacity="0.2" d="M20.3193 18.2691C20.6385 17.9499 21.0175 17.6967 21.4345 17.5239C21.8516 17.3512 22.2986 17.2623 22.75 17.2623C23.2014 17.2623 23.6484 17.3512 24.0655 17.5239C24.4825 17.6967 24.8615 17.9499 25.1807 18.2691L27.1938 20.2822C27.3679 20.4563 27.5757 20.5932 27.8045 20.6843C28.0332 20.7755 28.2782 20.8191 28.5243 20.8124C28.7705 20.8058 29.0127 20.749 29.2362 20.6457C29.4597 20.5423 29.6599 20.3945 29.8243 20.2112L41.8331 6.83072C42.3144 6.34912 42.8859 5.967 43.5149 5.70615C44.1444 5.44509 44.8192 5.31062 45.5006 5.31043C46.1821 5.31023 46.857 5.44432 47.4866 5.70502C48.1162 5.96572 48.6884 6.34793 49.1702 6.82981C49.6521 7.31169 50.0343 7.88379 50.295 8.51344C50.5557 9.14308 50.6898 9.81792 50.6896 10.4994C50.6894 11.1809 50.555 11.8556 50.2939 12.4851C50.033 13.1141 49.6509 13.6856 49.1693 14.167L35.7888 26.1757C35.6056 26.3402 35.4577 26.5403 35.3544 26.7638C35.251 26.9873 35.1943 27.2295 35.1876 27.4757C35.181 27.7219 35.2246 27.9668 35.3157 28.1956C35.4069 28.4243 35.5437 28.6321 35.7178 28.8062L37.7309 30.8194C38.3756 31.464 38.7378 32.3384 38.7378 33.25C38.7378 34.1617 38.3756 35.0361 37.7309 35.6807L33.25 40.1617L15.8384 22.75L20.3193 18.2691Z" fill="#2B4EFF" stroke="#2B4EFF" stroke-width="0.125"/>
<path d="M15.75 22.75L33.25 40.25" stroke="#2B4EFF" stroke-width="2" stroke-linecap="round" stroke-linejoin="round"/>
<path d="M22.2591 40.113L15.4361 46.9361" stroke="#2B4EFF" stroke-width="2" stroke-linecap="round" stroke-linejoin="round"/>
<path d="M16.1341 33.988L9.31105 40.8111" stroke="#2B4EFF" stroke-width="2" stroke-linecap="round" stroke-linejoin="round"/>
<path d="M29.7778 20.1695L41.7877 6.78773C42.2751 6.29976 42.8539 5.91262 43.491 5.64842C44.128 5.38421 44.8109 5.24812 45.5006 5.24793C46.1903 5.24773 46.8733 5.38343 47.5105 5.64727C48.1477 5.91111 48.7267 6.29793 49.2144 6.78561C49.7021 7.2733 50.0889 7.8523 50.3528 8.48953C50.6166 9.12676 50.7523 9.80973 50.7521 10.4994C50.7519 11.1891 50.6158 11.872 50.3516 12.5091C50.0874 13.1462 49.7003 13.7249 49.2123 14.2123L35.8306 26.2222C35.6536 26.381 35.5109 26.5742 35.4111 26.79C35.3113 27.0058 35.2565 27.2397 35.2501 27.4774C35.2437 27.7151 35.2858 27.9516 35.3738 28.1724C35.4618 28.3933 35.5939 28.5939 35.762 28.7621L37.7751 30.7752C38.1001 31.1002 38.3579 31.486 38.5338 31.9106C38.7097 32.3353 38.8003 32.7904 38.8003 33.25C38.8003 33.7097 38.7097 34.1648 38.5338 34.5894C38.3579 35.0141 38.1001 35.3999 37.7751 35.7249L21 52.5L3.5 35L20.2751 18.2249C20.6001 17.8999 20.986 17.6421 21.4106 17.4662C21.8352 17.2903 22.2904 17.1998 22.75 17.1998C23.2096 17.1998 23.6648 17.2903 24.0894 17.4662C24.514 17.6421 24.8999 17.8999 25.2249 18.2249L27.238 20.238C27.4061 20.4061 27.6067 20.5383 27.8276 20.6263C28.0485 20.7143 28.285 20.7564 28.5226 20.7499C28.7603 20.7435 28.9942 20.6888 29.21 20.5889C29.4258 20.4891 29.619 20.3464 29.7778 20.1695Z" stroke="#2B4EFF" stroke-width="2" stroke-linecap="round" stroke-linejoin="round"/>
</svg>
