<svg width="56" height="56" viewBox="0 0 56 56" fill="none" xmlns="http://www.w3.org/2000/svg">
<path opacity="0.2" d="M33.25 32.9236H33.2501C33.8856 32.923 34.5152 33.0434 35.1054 33.2781L35.1035 33.2878L35.164 33.3008L35.1643 33.3008L35.1829 33.2409L35.2384 33.2522C35.5688 31.6423 36.3491 30.1591 37.4887 28.9748C38.6283 27.7906 40.0805 26.9538 41.6765 26.5618C43.2726 26.1697 44.9471 26.2384 46.5057 26.7598C48.0643 27.2812 49.4431 28.234 50.4819 29.5076C51.5207 30.7812 52.177 32.3233 52.3745 33.9549C52.5721 35.5865 52.3028 37.2407 51.5979 38.7254C50.8931 40.2101 49.7815 41.4644 48.3924 42.3427C47.0033 43.221 45.3935 43.6874 43.75 43.6875H33.25C30.3871 43.6875 28.0625 41.2801 28.0625 38.3056C28.0625 35.331 30.3871 32.9236 33.25 32.9236Z" fill="#2B4EFF" stroke="#2B4EFF" stroke-width="0.125"/>
<path d="M33.25 43.75C30.3505 43.75 28 41.3124 28 38.3056C28 35.2987 30.3505 32.8611 33.25 32.8611C33.911 32.8605 34.5658 32.9892 35.1774 33.2397L35.1771 33.2397C35.51 31.6181 36.2959 30.1243 37.4437 28.9315C38.5915 27.7387 40.0541 26.896 41.6616 26.5011C43.2692 26.1062 44.9557 26.1753 46.5256 26.7005C48.0954 27.2257 49.484 28.1854 50.5303 29.4681C51.5766 30.7509 52.2376 32.3041 52.4366 33.9474C52.6355 35.5907 52.3643 37.2568 51.6544 38.7522C50.9444 40.2476 49.8249 41.5109 48.4258 42.3955C47.0267 43.2802 45.4053 43.7499 43.75 43.75H33.25Z" stroke="#2B4EFF" stroke-width="2" stroke-linecap="round" stroke-linejoin="round"/>
<path d="M3.5 38.5V35C3.5 30.8716 4.71685 26.8348 6.99844 23.3942C9.28002 19.9536 12.5251 17.2618 16.3281 15.6552C20.1311 14.0487 24.3232 13.5988 28.3805 14.3617C32.4378 15.1245 36.1803 17.0664 39.14 19.9444" stroke="#2B4EFF" stroke-width="2" stroke-linecap="round" stroke-linejoin="round"/>
<path d="M10.5 38.5V35C10.5002 32.4125 11.2175 29.8756 12.5722 27.671C13.9269 25.4664 15.866 23.6803 18.1743 22.5111C20.4826 21.3418 23.0697 20.8351 25.6486 21.0471C28.2274 21.2591 30.6971 22.1817 32.7834 23.7123" stroke="#2B4EFF" stroke-width="2" stroke-linecap="round" stroke-linejoin="round"/>
<path d="M17.5 38.5V35C17.5009 33.9429 17.741 32.8998 18.2023 31.9487C18.6636 30.9976 19.3342 30.1632 20.1637 29.508C20.9933 28.8528 21.9603 28.3939 22.9924 28.1655C24.0245 27.9371 25.0949 27.9452 26.1234 28.1892" stroke="#2B4EFF" stroke-width="2" stroke-linecap="round" stroke-linejoin="round"/>
</svg>
